<svg xmlns="http://www.w3.org/2000/svg" viewBox="0 0 496.57 203.11"><path style="fill:#fff" d="M42.51 103.33v-3.55L0 101.55l42.51 1.78zM43.29 111.33 1.95 121.37l42.04-6.56-.7-3.48zM46.32 122.51 7.73 140.42l39.95-14.63-1.36-3.28zM51.47 132.88l-34.36 25.1 36.34-22.15-1.98-2.95zM58.55 142.05l-28.81 31.32 31.32-28.81-2.51-2.51zM67.27 149.67 45.13 186l25.1-34.37-2.96-1.96zM77.32 155.43l-14.63 39.95 17.91-38.6-3.28-1.35zM88.3 159.13l-6.56 42.03 10.04-41.35-3.48-.68zM99.78 160.61l1.77 42.5 1.78-42.51-3.55.01zM103.33 42.5 101.55 0l-1.77 42.51 3.55-.01zM91.78 43.29 81.74 1.95l6.56 42.04 3.48-.7zM80.6 46.32 62.69 7.73l14.63 39.95 3.28-1.36zM70.23 51.47l-25.1-34.36 22.15 36.33 2.95-1.97zM61.06 58.54l-31.32-28.8 28.81 31.32 2.51-2.52zM53.44 67.27 17.11 45.13l34.36 25.09 1.97-2.95zM7.73 62.69l38.59 17.9 1.36-3.28L7.73 62.69zM43.98 88.29 1.95 81.74 43.3 91.77l.68-3.48z"/><g><path style="fill:#fff" d="m144.56 142.43 28.81 31.32-31.32-28.8 2.51-2.52zM135.84 150.05l22.14 36.33-25.1-34.36 2.96-1.97zM125.79 155.81l14.63 39.95-17.91-38.59 3.28-1.36zM114.81 159.51l6.56 42.03-10.04-41.34 3.48-.69zM111.33 43.68l10.04-41.34-6.56 42.03-3.48-.69zM122.51 46.7l17.91-38.59-14.63 39.95-3.28-1.36zM132.88 51.85l25.09-34.35-22.14 36.33-2.95-1.98zM142.05 58.92l31.32-28.79-28.81 31.31-2.51-2.52z"/></g><g><path d="M67.79 130.64c-2.34-.9-4.16-2.15-5.46-3.75-1.3-1.6-1.95-3.34-1.95-5.21 0-1.74.55-3.24 1.65-4.51 1.1-1.27 2.42-2.22 3.96-2.85 1.53-.63 2.9-.95 4.11-.95.4 0 .68.05.85.15.17.1.25.28.25.55 0 .13-.03.35-.1.65-.07.3-.2.69-.4 1.15-.07.13-.12.27-.15.4s-.08.27-.15.4c-.4 1.14-.7 2.25-.9 3.35-.2 1.1-.3 2.19-.3 3.25 0 1.67.25 3.07.75 4.2.5 1.14 1.22 1.99 2.15 2.55.93.57 2.04.85 3.3.85 2.8 0 5.29-1.34 7.46-4.01s3.84-5.97 5.01-9.91c1.17-3.94 1.75-7.68 1.75-11.22 0-3.2-.58-5.74-1.75-7.61s-3.15-2.8-5.96-2.8c-2.34 0-4.51.69-6.51 2.05-2 1.37-3.64 3.29-4.91 5.76-.27.53-.48.94-.65 1.2-.17.27-.38.4-.65.4-.4 0-.6-.3-.6-.9 0-.27.05-.58.15-.95.1-.37.25-.82.45-1.35.07-.13.13-.3.2-.5s.13-.4.2-.6l8.91-26.54c.2-.6.37-1.02.5-1.25.13-.23.37-.35.7-.35.4 0 .6.17.6.5 0 .27-.07.6-.2 1l-2.5 7.31h-.5c1.4-3.14 3-5.51 4.81-7.11 1.8-1.6 3.67-2.4 5.61-2.4 1 0 1.94.2 2.8.6.87.4 1.77.94 2.7 1.6 1 .74 1.92 1.29 2.75 1.65.83.37 1.82.55 2.95.55 1.4 0 2.59-.3 3.55-.9.97-.6 1.82-1.47 2.55-2.6 0-.07.02-.1.05-.1s.05-.03.05-.1c.13-.2.27-.37.4-.5s.27-.2.4-.2.23.07.3.2c.07.13.1.27.1.4 0 .47-.23 1.1-.7 1.9-1.8 3.47-3.65 6.29-5.56 8.46-1.9 2.17-4.02 3.25-6.36 3.25-1 0-1.99-.22-2.95-.65-.97-.43-2.02-1.02-3.15-1.75-.94-.67-1.8-1.17-2.6-1.5-.8-.33-1.7-.5-2.7-.5-.8 0-1.59.13-2.35.4-.77.27-1.5.79-2.2 1.55-.7.77-1.29 1.82-1.75 3.15l-5.21 15.22h-.7c1.2-2.27 2.97-4.15 5.31-5.66 2.34-1.5 5.27-2.25 8.81-2.25 2.87 0 5.56.57 8.06 1.7 2.5 1.14 4.51 2.85 6.01 5.16 1.5 2.3 2.25 5.16 2.25 8.56 0 4.07-1.1 7.85-3.3 11.32-2.2 3.47-5.19 6.24-8.96 8.31-3.77 2.07-7.89 3.1-12.37 3.1-2.94 0-5.57-.45-7.91-1.35ZM149.06 103.58s-10.39.03-12.25.03c-1.6 6.94-3.55 12.86-5.89 18.22-2.64 6.04-5.32 9.06-8.06 9.06-1.34 0-2.45-.79-3.35-2.35-.9-1.57-1.35-3.96-1.35-7.16 0-4.67.83-10.97 2.5-18.88 1.67-7.91 3.84-14.85 6.51-20.83 2.67-5.97 5.51-8.96 8.51-8.96 1.27 0 2.3.67 3.1 2 .8 1.34 1.2 3.57 1.2 6.71 0 2.74-.28 6-.83 9.79-.01.09 0 .06-.02.15 2.25.01 5.39-.01 5.39-.01s3.97.03 5.76-.01v-.06c-.1-4.23-.74-7.76-1.94-10.61-1.3-3.1-3.09-5.39-5.36-6.86-2.27-1.47-4.87-2.2-7.81-2.2-4.94 0-9.51 1.92-13.72 5.76-4.2 3.84-7.53 8.81-9.96 14.92-2.44 6.11-3.65 12.33-3.65 18.68 0 4.54.65 8.4 1.95 11.57s3.12 5.54 5.46 7.11c2.34 1.57 5.04 2.31 8.11 2.35 6.58.1 9.56-1.94 13.67-5.81 4.11-3.87 7.34-8.86 9.71-14.97 1.04-2.69 1.73-4.89 2.31-7.64" style="fill:#fff"/><path d="m130.57 98.27-2.59-4.62h1.46l1.78 3.33 1.79-3.33h1.42l-2.58 4.61v3.07h-1.27v-3.06ZM135.4 93.65h4.84v1.15h-3.58v2.09h3.17v1.15h-3.17v2.14h3.63v1.15h-4.9v-7.69ZM143.89 93.61h1.23l2.82 7.73h-1.33l-.64-1.81h-2.99l-.64 1.81h-1.29l2.82-7.73Zm1.69 4.79-1.1-3.09-1.1 3.09h2.2ZM149.04 93.65h2.78c.88 0 1.59.26 2.05.72.41.41.64.99.64 1.69v.04c0 1.19-.66 1.92-1.59 2.25l1.81 2.98h-1.47l-1.64-2.72s-.05.01-.08.01h-1.23v2.71h-1.27v-7.69Zm2.65 3.83c.99 0 1.54-.53 1.54-1.33v-.02c0-.87-.56-1.32-1.52-1.32h-1.39v2.67h1.37ZM155.34 100.33l.77-.96c.57.52 1.21.91 2.02.91.74 0 1.21-.41 1.21-.98 0-.49-.25-.81-1.47-1.26-1.46-.55-2.22-1.09-2.22-2.32v-.02c0-1.26 1.01-2.15 2.44-2.15.89 0 1.71.29 2.42.9l-.73.98c-.53-.43-1.11-.72-1.72-.72-.69 0-1.12.38-1.12.89 0 .55.29.83 1.59 1.34 1.43.55 2.09 1.14 2.09 2.26v.02c0 1.35-1.05 2.22-2.49 2.22-.99 0-1.94-.34-2.78-1.11Z" style="fill:#fff"/></g><g><path d="M189.94 48.49h18.31c6.98 0 12.57 2.1 16.07 5.68 3.06 3.06 4.8 7.42 4.8 12.57v.18c0 9.69-6.02 15.54-14.49 17.64l16.41 25.06h-7.86l-15.37-23.75h-11.32v23.75h-6.55V48.49m17.17 31.44c9.95 0 15.45-4.98 15.45-12.75v-.17c0-8.03-5.59-12.49-14.76-12.49h-11.32v25.41h10.62ZM233.06 87.26v-.44c0-13.88 8.12-23.58 18.77-23.58 11.44 0 18.25 9.78 18.25 23.49 0 .61 0 1.83-.09 2.62h-30.56c.7 10.04 6.9 15.63 14.06 15.63 4.98 0 8.65-2.1 11.79-5.24l3.58 4.02c-4.1 4.19-8.82 6.81-15.63 6.81-11.09 0-20.17-8.91-20.17-23.31m30.73-2.79c-.44-8.64-4.54-15.72-11.96-15.72-6.72 0-11.79 6.2-12.4 15.72h24.36ZM304.77 64.12h6.72l-16.15 46.28c-3.23 9.43-7.16 12.66-13.27 12.66-2.25 0-4.39-.43-6.47-1.28v-6.14c1.74.96 3.85 1.74 6.12 1.74 3.41 0 5.59-1.92 7.86-7.77l-17.46-45.49h6.81l13.62 37.46 12.22-37.46M317.61 64.12h6.29v7.42c2.53-4.54 6.64-8.29 13.45-8.29 9.26 0 14.84 6.37 14.84 16.59v29.77h-6.29V81.58c0-8.12-3.84-12.66-10.48-12.66s-11.53 5.24-11.53 13.01v27.68h-6.29V64.12M359 87.25v-.61c0-13.27 8.56-23.4 20.26-23.4s20.17 10.04 20.17 23.31v.53c0 13.27-8.56 23.49-20.26 23.49S359 100.53 359 87.26m34.05-.09v-.44c0-10.21-6.11-17.81-13.88-17.81s-13.71 7.6-13.71 17.72v.44c0 10.22 6.02 17.81 13.79 17.81s13.8-7.68 13.8-17.73ZM406.56 46.57h6.29v63.04h-6.29zM420.52 87.34v-.87c0-15.1 8.91-23.23 18.16-23.23 7.25 0 11.79 4.37 14.76 9.34V46.56h6.29v63.04h-6.29v-8.73c-3.05 5.15-7.6 9.6-14.76 9.6-9.25 0-18.16-7.94-18.16-23.14m33.18-.09v-.79c0-10.74-6.55-17.55-13.71-17.55s-13.01 6.37-13.01 17.55v.7c0 11.09 5.94 17.64 13.01 17.64s13.71-6.81 13.71-17.55ZM465.4 104.02l3.32-4.63c4.28 3.58 8.73 5.5 13.27 5.5 4.98 0 8.47-2.79 8.47-7.07v-.09c0-4.02-3.76-6.11-9.87-8.65-7.25-3.14-13.01-6.02-13.01-13.1v-.17c0-7.42 6.02-12.4 14.15-12.4 5.15 0 10.48 2.01 13.63 4.41v6.78c-4.53-3.82-9.78-5.77-13.8-5.77-4.8 0-7.86 2.79-7.86 6.38v.17c0 3.84 3.93 5.76 10.13 8.38 7.51 3.32 12.75 6.46 12.75 13.36v.18c0 8.12-6.55 13.1-14.76 13.1-5.59 0-11.61-2.18-16.42-6.37M188.81 144.85v-.2c0-6.94 4.32-11.73 10.05-11.73 3.14 0 5.17 1.15 6.98 2.82l-1.51 1.87c-1.44-1.37-3.18-2.39-5.5-2.39-4.22 0-7.47 3.87-7.47 9.4v.13c0 5.63 3.24 9.46 7.47 9.46 2.36 0 4.03-.98 5.67-2.55l1.47 1.7c-1.93 1.9-4.13 3.14-7.27 3.14-5.67 0-9.89-4.68-9.89-11.66M207.55 144.88v-.26c0-6.75 4.06-11.72 9.89-11.72s9.83 4.94 9.83 11.66v.26c0 6.75-4.03 11.72-9.86 11.72s-9.86-4.94-9.86-11.66m17.19-.03v-.23c0-5.54-3.11-9.47-7.34-9.47s-7.3 3.9-7.3 9.43v.23c0 5.53 3.11 9.46 7.34 9.46s7.3-3.9 7.3-9.43ZM230.88 133.26h2.55l6.98 12.28 7.01-12.28h2.55v22.92h-2.46v-18.47l-7.07 12.25h-.1l-7.07-12.25v18.47h-2.39v-22.92M254.76 133.26h2.55l6.98 12.28 7-12.28h2.56v22.92h-2.46v-18.47l-7.07 12.25h-.1l-7.07-12.25v18.47h-2.39v-22.92M278.37 147.63v-14.38h2.46v14.31c0 4.32 2.19 6.71 5.8 6.71s5.73-2.26 5.73-6.62v-14.41h2.46v14.25c0 5.89-3.31 9.04-8.25 9.04s-8.19-3.14-8.19-8.91M299.34 133.26h2.32l11.99 18.04v-18.04h2.42v22.92h-2.06l-12.28-18.47v18.47h-2.39v-22.92M320.52 133.26h2.46v22.92h-2.46zM332.01 135.55h-6.42v-2.29h15.33v2.29h-6.46v20.63h-2.45v-20.63M350.91 146.95l-8.05-13.69h2.84l6.49 11.2 6.48-11.2h2.79l-8.06 13.62v9.3h-2.49v-9.23M368.18 144.85v-.2c0-6.94 4.32-11.73 10.05-11.73 3.15 0 5.17 1.15 6.98 2.82l-1.51 1.87c-1.44-1.37-3.18-2.39-5.5-2.39-4.23 0-7.47 3.87-7.47 9.4v.13c0 5.63 3.24 9.46 7.47 9.46 2.36 0 4.03-.98 5.66-2.55l1.47 1.7c-1.93 1.9-4.13 3.14-7.27 3.14-5.66 0-9.89-4.68-9.89-11.66M386.91 144.88v-.26c0-6.75 4.06-11.72 9.89-11.72s9.83 4.94 9.83 11.66v.26c0 6.75-4.03 11.72-9.86 11.72s-9.86-4.94-9.86-11.66m17.19-.03v-.23c0-5.54-3.11-9.47-7.34-9.47s-7.3 3.9-7.3 9.43v.23c0 5.53 3.11 9.46 7.33 9.46s7.3-3.9 7.3-9.43ZM409.96 133.26h2.45v20.66h10.65v2.26h-13.1v-22.92M426.24 133.26h2.45v20.66h10.65v2.26h-13.1v-22.92M442.52 133.26h13.98v2.26h-11.53v7.99h10.35v2.23h-10.35v8.18h11.69v2.26h-14.14v-22.92M459.35 144.85v-.23c0-6.65 4.19-11.69 10.22-11.69 2.98 0 4.98.85 6.94 2.46l-1.47 1.96c-1.41-1.24-3.05-2.13-5.53-2.13-4.36 0-7.6 3.93-7.6 9.4v.16c0 5.77 3.11 9.5 7.83 9.5 1.96 0 3.76-.72 4.94-1.64v-6.45h-5.73V144h8.09v9.82c-1.77 1.44-4.35 2.69-7.4 2.69-6.26 0-10.28-4.75-10.28-11.66M481.36 133.26h13.99v2.26h-11.53v7.99h10.35v2.23h-10.35v8.18h11.69v2.26h-14.15v-22.92" style="fill:#fff"/></g></svg>